<?xml version="1.0" encoding="UTF-8"?>
<!DOCTYPE svg PUBLIC "-//W3C//DTD SVG 1.1//EN" "http://www.w3.org/Graphics/SVG/1.1/DTD/svg11.dtd">
<!-- Creator: CorelDRAW X7 -->
<svg xmlns="http://www.w3.org/2000/svg" xml:space="preserve" width="178.916mm" height="39.1059mm" version="1.1" style="shape-rendering:geometricPrecision; text-rendering:geometricPrecision; image-rendering:optimizeQuality; fill-rule:evenodd; clip-rule:evenodd"
viewBox="0 0 15405 3367"
 xmlns:xlink="http://www.w3.org/1999/xlink">
 <defs>
  <style type="text/css">
   <![CDATA[
    .fil3 {fill:#4B4B4D}
    .fil0 {fill:#C31F24}
    .fil2 {fill:#4B4B4D;fill-rule:nonzero}
    .fil1 {fill:#C31F24;fill-rule:nonzero}
   ]]>
  </style>
 </defs>
 <g id="Layer_x0020_1">
  <metadata id="CorelCorpID_0Corel-Layer"/>
  <g id="_514099904">
   <path class="fil0" d="M6584 2619l-260 -384 -767 1132 -754 0 1145 -1686 -632 -933 749 0 259 380c255,-376 510,-752 767,-1128l747 0 -1139 1681 637 938 -752 0z"/>
   <path class="fil1" d="M2876 2635l0 -1227c0,-227 -56,-399 -168,-517 -113,-117 -269,-175 -468,-175 -129,0 -244,25 -345,76 -101,51 -192,125 -274,225 -49,-98 -119,-171 -209,-224 -90,-52 -198,-77 -322,-77 -68,0 -129,8 -185,24 -55,17 -104,39 -149,68 -45,28 -85,61 -121,97 -37,37 -70,75 -101,115l0 -269 -534 0 0 1884 534 0 0 -1049c0,-126 29,-221 87,-285 57,-64 136,-97 237,-97 101,0 178,33 232,97 54,64 81,159 81,285l0 1049 534 0 0 -1049c0,-126 29,-221 87,-285 57,-64 136,-97 237,-97 101,0 178,33 232,97 54,64 81,159 81,285l0 1049 534 0z"/>
   <path class="fil1" d="M4992 2638l0 -1089c0,-254 -66,-452 -199,-594 -133,-143 -345,-214 -637,-214 -159,0 -294,14 -406,42 -112,28 -219,64 -322,109l133 405c87,-32 169,-57 247,-75 78,-17 169,-26 271,-26 133,0 233,29 301,87 68,59 102,144 102,256l0 31c-68,-23 -138,-42 -209,-56 -71,-14 -154,-21 -250,-21 -112,0 -214,13 -306,37 -92,25 -171,61 -238,110 -66,49 -118,111 -156,186 -37,74 -56,163 -56,266l0 7c0,93 17,175 51,246 34,72 80,132 138,181 59,49 127,85 205,110 78,24 162,37 250,37 131,0 242,-22 333,-65 91,-43 169,-101 234,-173l0 203 514 0zm-503 -662c0,98 -38,178 -114,238 -76,61 -177,91 -303,91 -86,0 -156,-20 -210,-59 -53,-40 -80,-96 -80,-168l0 -7c0,-84 32,-148 98,-193 65,-44 155,-66 269,-66 65,0 127,6 184,19 57,13 109,30 156,51l0 94z"/>
   <polygon class="fil2" points="10633,746 10186,746 9926,1887 9624,739 9237,739 8939,1883 8684,746 8229,746 8717,2635 9119,2635 9429,1484 9734,2635 10139,2635 "/>
   <path class="fil2" d="M12383 1743l0 -7c0,-130 -16,-255 -46,-375 -31,-119 -78,-225 -142,-317 -64,-93 -144,-166 -241,-221 -97,-54 -211,-82 -343,-82 -116,0 -222,25 -318,75 -95,50 -178,119 -247,205 -69,87 -122,188 -161,305 -38,116 -57,239 -57,369l0 7c0,141 20,269 62,384 41,115 99,215 173,299 74,84 161,149 263,195 101,45 211,68 329,68 144,0 269,-30 376,-90 106,-61 197,-144 272,-252l-257 -263c-63,66 -124,114 -184,144 -59,29 -126,44 -201,44 -100,0 -184,-30 -252,-90 -68,-61 -113,-150 -135,-269l1103 0c2,-25 3,-46 4,-65 1,-18 2,-39 2,-64zm-438 -195l-677 0c18,-119 56,-213 114,-284 58,-71 134,-106 229,-106 95,0 171,36 228,108 57,72 92,166 106,282z"/>
   <path class="fil2" d="M14381 1695l0 -7c0,-152 -20,-287 -60,-404 -41,-118 -95,-217 -162,-297 -67,-81 -143,-142 -230,-183 -87,-41 -177,-62 -269,-62 -118,0 -217,28 -294,84 -78,55 -145,125 -200,211l0 -923 -449 0 0 2493 449 0 0 -237c53,73 119,136 197,190 78,54 177,81 297,81 94,0 185,-20 272,-61 86,-41 163,-102 229,-183 66,-81 119,-180 160,-297 40,-117 60,-252 60,-405zm-449 0c0,78 -11,148 -31,210 -21,62 -49,115 -85,160 -35,45 -76,79 -122,103 -47,24 -96,36 -150,36 -53,0 -102,-12 -149,-36 -46,-24 -87,-58 -121,-103 -34,-45 -62,-99 -83,-162 -20,-63 -31,-132 -31,-208l0 -7c0,-75 11,-145 31,-207 21,-63 49,-118 83,-162 34,-45 75,-79 121,-104 47,-23 96,-35 149,-35 54,0 103,12 150,35 46,25 87,59 122,104 36,44 64,99 85,162 20,62 31,132 31,207l0 7z"/>
   <polygon class="fil3" points="7602,751 8048,751 7468,1690 8099,2623 7653,2623 6982,1690 "/>
   <polygon class="fil3" points="14778,741 14328,741 14914,1689 14277,2631 14727,2631 15405,1689 "/>
   <path class="fil2" d="M12502 2950l0 -1c0,-23 -3,-44 -9,-62 -6,-18 -15,-34 -25,-46 -10,-13 -22,-22 -36,-28 -13,-7 -27,-10 -41,-10 -18,0 -33,5 -45,13 -12,9 -23,20 -31,33l0 -143 -69 0 0 385 69 0 0 -37c8,11 18,21 30,30 12,8 27,12 46,12 15,0 29,-3 42,-9 13,-7 25,-16 35,-29 10,-12 19,-27 25,-45 6,-18 9,-39 9,-63zm-69 0c0,12 -2,23 -5,33 -3,9 -7,17 -13,24 -5,7 -12,12 -19,16 -7,4 -15,6 -23,6 -8,0 -16,-2 -23,-6 -7,-4 -13,-9 -19,-16 -5,-7 -9,-15 -12,-25 -3,-9 -5,-20 -5,-32l0 -1c0,-12 2,-22 5,-32 3,-10 7,-18 12,-25 6,-7 12,-12 19,-16 7,-3 15,-5 23,-5 8,0 16,2 23,5 7,4 14,9 19,16 6,7 10,15 13,25 3,10 5,20 5,32l0 1z"/>
   <path id="1" class="fil2" d="M12786 2809l-72 0 -54 192 -55 -192 -74 0 96 283c-3,7 -6,12 -10,14 -3,3 -8,4 -14,4 -5,0 -10,-1 -15,-3 -5,-2 -10,-5 -15,-8l-23 58c9,6 18,11 28,14 10,4 21,6 34,6 10,0 19,-2 27,-5 8,-2 15,-7 21,-13 6,-7 12,-15 17,-25 5,-10 10,-22 15,-36l94 -289z"/>
   <polygon id="2" class="fil2" points="13290,3091 13290,2722 13214,2722 13130,2878 13047,2722 12971,2722 12971,3091 13040,3091 13040,2852 13129,3008 13131,3008 13221,2850 13221,3091 "/>
   <path id="3" class="fil2" d="M13569 3091l0 -164c0,-38 -8,-68 -26,-89 -17,-22 -45,-33 -83,-33 -20,0 -38,3 -52,7 -15,4 -29,9 -42,16l17 61c11,-5 22,-9 32,-11 10,-3 22,-4 35,-4 18,0 31,4 40,13 8,9 13,22 13,38l0 5c-9,-3 -18,-6 -27,-8 -10,-2 -20,-3 -33,-3 -14,0 -28,1 -40,5 -12,4 -22,9 -31,17 -8,7 -15,16 -20,28 -5,11 -7,24 -7,40l0 1c0,14 2,26 6,37 5,11 11,20 18,27 8,7 17,13 27,17 10,3 21,5 33,5 17,0 31,-3 43,-10 12,-6 22,-15 30,-26l0 31 67 0zm-65 -100c0,15 -5,27 -15,36 -10,9 -23,14 -39,14 -12,0 -21,-3 -28,-9 -7,-6 -10,-15 -10,-25l0 -1c0,-13 4,-23 12,-29 9,-7 21,-10 36,-10 8,0 16,1 23,2 8,2 15,5 21,8l0 14z"/>
   <polygon id="4" class="fil2" points="13854,3091 13768,2946 13850,2809 13778,2809 13732,2891 13686,2809 13612,2809 13694,2948 13609,3091 13681,3091 13730,3003 13780,3091 "/>
   <path id="5" class="fil2" d="M14141 3091l0 -385 -69 0 0 139c-8,-11 -19,-21 -31,-29 -12,-8 -27,-13 -45,-13 -15,0 -29,3 -42,10 -14,6 -25,15 -36,28 -10,12 -18,28 -24,46 -6,18 -10,39 -10,62l0 1c0,24 4,45 10,63 6,18 14,33 25,45 10,13 22,22 35,29 14,6 27,9 42,9 18,0 33,-4 45,-13 12,-8 22,-19 31,-32l0 40 69 0zm-68 -141c0,12 -2,23 -5,32 -3,10 -8,18 -13,25 -5,7 -11,12 -19,16 -7,4 -14,6 -23,6 -8,0 -15,-2 -23,-6 -7,-4 -13,-9 -19,-16 -5,-7 -9,-15 -13,-25 -3,-9 -4,-20 -4,-32l0 -1c0,-12 1,-23 4,-32 4,-10 8,-18 13,-25 6,-7 12,-12 19,-16 8,-3 15,-5 23,-5 9,0 16,2 23,5 8,4 14,9 19,16 5,7 10,15 13,25 3,10 5,20 5,32l0 1z"/>
   <path id="6" class="fil2" d="M14413 3091l0 -164c0,-38 -8,-68 -26,-89 -17,-22 -45,-33 -83,-33 -20,0 -38,3 -53,7 -14,4 -28,9 -42,16l18 61c11,-5 22,-9 32,-11 10,-3 22,-4 35,-4 18,0 31,4 39,13 9,9 14,22 14,38l0 5c-9,-3 -18,-6 -27,-8 -10,-2 -21,-3 -33,-3 -15,0 -28,1 -40,5 -12,4 -22,9 -31,17 -9,7 -15,16 -20,28 -5,11 -8,24 -8,40l0 1c0,14 3,26 7,37 5,11 10,20 18,27 8,7 17,13 27,17 10,3 21,5 32,5 17,0 32,-3 44,-10 12,-6 22,-15 30,-26l0 31 67 0zm-65 -100c0,15 -5,27 -15,36 -10,9 -23,14 -40,14 -11,0 -20,-3 -27,-9 -7,-6 -11,-15 -11,-25l0 -1c0,-13 5,-23 13,-29 9,-7 20,-10 35,-10 9,0 17,1 24,2 8,2 15,5 21,8l0 14z"/>
   <path id="7" class="fil2" d="M14610 3079l0 -64c-10,7 -22,10 -34,10 -15,0 -22,-9 -22,-27l0 -121 57 0 0 -68 -57 0 0 -73 -70 0 0 73 -29 0 0 68 29 0 0 134c0,16 2,30 6,41 3,10 8,19 14,26 6,6 14,11 23,14 8,2 18,4 28,4 12,0 22,-2 31,-5 9,-3 17,-7 24,-12z"/>
   <path id="8" class="fil2" d="M14872 3091l0 -164c0,-38 -8,-68 -26,-89 -17,-22 -45,-33 -83,-33 -20,0 -38,3 -53,7 -14,4 -28,9 -41,16l17 61c11,-5 22,-9 32,-11 10,-3 22,-4 35,-4 18,0 31,4 40,13 8,9 13,22 13,38l0 5c-9,-3 -18,-6 -27,-8 -10,-2 -21,-3 -33,-3 -15,0 -28,1 -40,5 -12,4 -22,9 -31,17 -9,7 -15,16 -20,28 -5,11 -7,24 -7,40l0 1c0,14 2,26 6,37 5,11 11,20 18,27 8,7 17,13 27,17 10,3 21,5 32,5 17,0 32,-3 44,-10 12,-6 22,-15 30,-26l0 31 67 0zm-65 -100c0,15 -5,27 -15,36 -10,9 -23,14 -40,14 -11,0 -20,-3 -27,-9 -7,-6 -10,-15 -10,-25l0 -1c0,-13 4,-23 12,-29 9,-7 21,-10 35,-10 9,0 17,1 24,2 8,2 15,5 21,8l0 14z"/>
  </g>
 </g>
</svg>
